<svg width="122" height="60" viewBox="0 0 122 60" fill="none" xmlns="http://www.w3.org/2000/svg">
<path d="M35.8217 25V20C35.8217 18.6739 35.2912 17.4021 34.3468 16.4645C33.4024 15.5268 32.1216 15 30.786 15C29.4505 15 28.1697 15.5268 27.2253 16.4645C26.2809 17.4021 25.7504 18.6739 25.7504 20V25H20.7147C19.3792 25 18.0984 25.5268 17.154 26.4645C16.2096 27.4021 15.6791 28.6739 15.6791 30C15.6791 31.3261 16.2096 32.5978 17.154 33.5355C18.0984 34.4732 19.3792 35 20.7147 35H25.7504V40C25.7504 41.3261 26.2809 42.5978 27.2253 43.5355C28.1697 44.4732 29.4505 45 30.786 45C32.1216 45 33.4024 44.4732 34.3468 43.5355C35.2912 42.5978 35.8217 41.3261 35.8217 40V35H40.8574C42.1929 35 43.4737 34.4732 44.4181 33.5355C45.3625 32.5978 45.893 31.3261 45.893 30C45.893 28.6739 45.3625 27.4021 44.4181 26.4645C43.4737 25.5268 42.1929 25 40.8574 25H35.8217ZM30.786 7.70324e-09H91.2139C96.2538 -0.000113383 101.214 1.25159 105.642 3.64113C110.07 6.03067 113.826 9.48213 116.567 13.6812C119.309 17.8803 120.949 22.6937 121.338 27.6829C121.728 32.6722 120.854 37.6789 118.796 42.2471C116.739 46.8154 113.563 50.8 109.558 53.8382C105.554 56.8764 100.847 58.8716 95.8672 59.6422C90.8874 60.4128 85.7925 59.9342 81.0466 58.2501C76.3007 56.5661 72.0544 53.7299 68.6945 50H53.3055C49.9456 53.7299 45.6993 56.5661 40.9534 58.2501C36.2074 59.9342 31.1126 60.4128 26.1328 59.6422C21.153 58.8716 16.4465 56.8764 12.4417 53.8382C8.43697 50.8 5.26127 46.8154 3.20379 42.2471C1.14631 37.6789 0.272411 32.6722 0.661671 27.6829C1.05093 22.6937 2.69098 17.8803 5.43248 13.6812C8.17399 9.48213 11.9298 6.03067 16.3581 3.64113C20.7863 1.25159 25.7461 -0.000113383 30.786 7.70324e-09ZM91.2139 25C92.5495 25 93.8303 24.4732 94.7747 23.5355C95.719 22.5978 96.2496 21.3261 96.2496 20C96.2496 18.6739 95.719 17.4021 94.7747 16.4645C93.8303 15.5268 92.5495 15 91.2139 15C89.8784 15 88.5975 15.5268 87.6532 16.4645C86.7088 17.4021 86.1783 18.6739 86.1783 20C86.1783 21.3261 86.7088 22.5978 87.6532 23.5355C88.5975 24.4732 89.8784 25 91.2139 25ZM81.1426 35C82.4781 35 83.759 34.4732 84.7034 33.5355C85.6477 32.5978 86.1783 31.3261 86.1783 30C86.1783 28.6739 85.6477 27.4021 84.7034 26.4645C83.759 25.5268 82.4781 25 81.1426 25C79.8071 25 78.5262 25.5268 77.5819 26.4645C76.6375 27.4021 76.107 28.6739 76.107 30C76.107 31.3261 76.6375 32.5978 77.5819 33.5355C78.5262 34.4732 79.8071 35 81.1426 35ZM101.285 35C102.621 35 103.902 34.4732 104.846 33.5355C105.79 32.5978 106.321 31.3261 106.321 30C106.321 28.6739 105.79 27.4021 104.846 26.4645C103.902 25.5268 102.621 25 101.285 25C99.9497 25 98.6689 25.5268 97.7245 26.4645C96.7801 27.4021 96.2496 28.6739 96.2496 30C96.2496 31.3261 96.7801 32.5978 97.7245 33.5355C98.6689 34.4732 99.9497 35 101.285 35ZM91.2139 45C92.5495 45 93.8303 44.4732 94.7747 43.5355C95.719 42.5978 96.2496 41.3261 96.2496 40C96.2496 38.6739 95.719 37.4021 94.7747 36.4645C93.8303 35.5268 92.5495 35 91.2139 35C89.8784 35 88.5975 35.5268 87.6532 36.4645C86.7088 37.4021 86.1783 38.6739 86.1783 40C86.1783 41.3261 86.7088 42.5978 87.6532 43.5355C88.5975 44.4732 89.8784 45 91.2139 45Z" fill="black"/>
</svg>
