<svg width="120" height="80" viewBox="0 0 120 80" fill="none" xmlns="http://www.w3.org/2000/svg">
<path d="M109.27 14.0568C93.4204 -11.9834 69.5443 6.13308 69.5443 6.13308C67.9958 7.30341 65.1404 8.26562 63.2004 8.27008L56.8051 8.27457C54.8649 8.27681 52.0096 7.3146 50.4635 6.14427C50.4635 6.14427 26.5849 -11.9766 10.733 14.0635C-5.1144 40.0946 1.27198 68.4441 1.27198 68.4441C2.39084 75.3855 6.07858 80.0174 13.0378 79.4357C19.9769 78.8562 35.039 60.742 35.039 60.742C36.2831 59.2493 38.8899 58.0298 40.8255 58.0298L79.1664 58.0232C81.1042 58.0232 83.7088 59.2427 84.9507 60.7351C84.9507 60.7351 100.015 78.8494 106.965 79.4289C113.916 80.0108 117.612 75.3743 118.724 68.4375C118.724 68.4375 125.12 40.0924 109.27 14.0568ZM45.5918 35.2522H37.3707V43.176C37.3707 43.176 35.6297 44.5053 32.9356 44.4716C30.2458 44.4314 29.0285 43.0216 29.0285 43.0216V35.2546H21.2636C21.2636 35.2546 20.2947 34.261 20.0351 31.6451C19.78 29.0293 21.107 26.9147 21.107 26.9147H29.3305V18.6933C29.3305 18.6933 31.0222 17.787 33.4546 17.8564C35.8892 17.9325 37.6726 18.8477 37.6726 18.8477L37.6392 26.9125H45.404C45.404 26.9125 46.7601 28.6532 46.8718 30.7568C46.9837 32.8624 45.5918 35.2522 45.5918 35.2522ZM83.3017 44.2836C79.7013 44.2836 76.7989 41.3724 76.7989 37.7765C76.7989 34.1736 79.7013 31.2693 83.3017 31.2693C86.8863 31.2693 89.8112 34.1736 89.8112 37.7765C89.8112 41.3746 86.8863 44.2836 83.3017 44.2836ZM83.3017 26.3798C79.7013 26.3798 76.7989 23.4708 76.7989 19.8748C76.7989 16.2721 79.7013 13.3676 83.3017 13.3676C86.8863 13.3676 89.8112 16.2721 89.8112 19.8748C89.8112 23.473 86.8863 26.3798 83.3017 26.3798ZM99.5072 35.9907C95.9065 35.9907 93.0043 33.0817 93.0043 29.4834C93.0043 25.883 95.9065 22.9763 99.5072 22.9763C103.092 22.9763 106.017 25.883 106.017 29.4834C106.017 33.0817 103.092 35.9907 99.5072 35.9907Z" fill="#010002"/>
</svg>
