<svg width="100" height="88" viewBox="0 0 100 88" fill="none" xmlns="http://www.w3.org/2000/svg">
<path d="M15 0.756292H85C88.9782 0.756292 92.7936 2.20495 95.6066 4.78357C98.4197 7.3622 100 10.8596 100 14.5063V51.173C100 54.8197 98.4197 58.317 95.6066 60.8957C92.7936 63.4743 88.9782 64.923 85 64.923H50.21L17.99 86.9596C17.2461 87.4684 16.3624 87.7773 15.4378 87.8518C14.5133 87.9263 13.5843 87.7635 12.755 87.3815C11.9257 86.9994 11.2287 86.4134 10.7421 85.6889C10.2556 84.9644 9.9986 84.13 10 83.2792V64.9184C7.34784 64.9184 4.8043 63.9526 2.92893 62.2335C1.05357 60.5144 0 58.1829 0 55.7517V14.5017C0 10.855 1.58035 7.35762 4.3934 4.77899C7.20644 2.20037 11.0218 0.751709 15 0.751709V0.756292Z" fill="black"/>
</svg>
