<svg width="119" height="110" viewBox="0 0 119 110" fill="none" xmlns="http://www.w3.org/2000/svg">
<path d="M69.2578 76.5246C74.8074 73.3136 78.5458 67.2872 78.5458 60.3998H111.983C116.093 60.3998 119.459 63.7504 118.949 67.8223C116.928 84.1333 108.314 98.3967 95.8911 107.867C92.6171 110.357 88.0428 109.1 85.9762 105.54L69.2578 76.5246ZM59.9698 41.7853C56.5797 41.7853 53.4218 42.6927 50.6818 44.2749L33.9634 15.2363C31.92 11.6763 33.1042 7.06915 36.8891 5.48692C43.9944 2.48531 51.7963 0.83329 59.9698 0.83329C68.1432 0.83329 75.9684 2.48531 83.0505 5.48692C86.8353 7.09242 88.0195 11.6763 85.9762 15.2363L69.2578 44.2749C66.5178 42.6927 63.3599 41.7853 59.9698 41.7853ZM7.95699 60.3998H41.3938C41.3938 67.2872 45.1322 73.3136 50.6818 76.5246L33.9634 105.54C31.92 109.1 27.3225 110.357 24.0485 107.867C11.6025 98.3967 3.01112 84.1333 0.967781 67.8223C0.456932 63.7504 3.84705 60.3998 7.93377 60.3998H7.95699ZM59.9698 71.5685C51.3899 71.5689 46.0275 62.2619 50.3172 54.8159C52.3082 51.3599 55.9875 49.2309 59.9698 49.2311C68.5497 49.2311 73.9121 58.5383 69.6222 65.9842C67.6311 69.4399 63.9519 71.5687 59.9698 71.5685Z" fill="black"/>
</svg>
